<?xml version="1.0" standalone="no"?>
<!DOCTYPE svg PUBLIC "-//W3C//DTD SVG 20010904//EN"
 "http://www.w3.org/TR/2001/REC-SVG-20010904/DTD/svg10.dtd">
<svg version="1.0" xmlns="http://www.w3.org/2000/svg"
 width="547.000000pt" height="456.000000pt" viewBox="0 0 547.000000 456.000000"
 preserveAspectRatio="xMidYMid meet">

<g transform="translate(0.000000,456.000000) scale(0.100000,-0.100000)"
fill="#40b5e7" stroke="none">
<path d="M2840 2725 c0 -74 -2 -135 -3 -135 -2 0 -17 7 -34 15 -51 25 -132 36
-189 26 -81 -15 -120 -36 -177 -93 l-52 -53 -33 36 c-49 56 -102 87 -174 105
-61 15 -72 15 -138 0 -108 -24 -176 -77 -221 -171 -25 -51 -29 -72 -29 -140 0
-67 5 -90 28 -140 31 -65 86 -121 154 -157 63 -33 204 -32 268 1 59 31 85 52
120 96 28 35 29 36 40 15 17 -32 68 -75 125 -107 45 -25 60 -28 140 -28 80 1
96 4 143 30 76 41 138 113 160 187 l18 59 13 -43 c28 -96 79 -157 171 -204 48
-25 66 -29 140 -29 69 0 94 5 134 24 60 30 108 71 135 116 l20 35 -78 0 c-47
0 -93 -6 -114 -15 -42 -17 -123 -20 -164 -4 -67 25 -118 106 -110 176 18 162
223 221 317 91 17 -22 30 -45 30 -50 0 -4 -65 -8 -144 -8 -141 0 -144 0 -150
-23 -6 -25 2 -65 17 -84 7 -10 63 -13 218 -13 l209 0 0 73 c0 157 -106 285
-263 317 -150 30 -317 -67 -362 -212 -12 -39 -14 -18 -14 200 l-1 242 -75 0
-75 0 0 -135z m-654 -254 c67 -30 112 -115 98 -185 -9 -49 -58 -115 -99 -132
-46 -19 -117 -18 -160 3 -50 24 -95 95 -95 149 0 139 130 222 256 165z m547 5
c93 -40 134 -154 87 -246 -32 -63 -72 -85 -157 -85 -77 0 -106 13 -147 69 -32
43 -30 159 4 204 48 65 139 90 213 58z"/>
<path d="M1402 2630 c-115 -24 -208 -107 -242 -217 -25 -81 -25 -115 -1 -191
29 -95 76 -151 166 -199 44 -24 62 -27 140 -28 80 0 95 3 141 29 65 35 115 86
149 151 l26 50 -77 3 c-77 3 -77 3 -108 -32 -17 -19 -44 -40 -59 -46 -37 -13
-108 -13 -144 1 -132 50 -139 256 -10 318 79 38 153 23 216 -43 34 -35 37 -36
108 -36 40 0 73 2 73 4 0 14 -33 78 -59 113 -69 96 -202 147 -319 123z"/>
<path d="M3603 2550 c34 -45 69 -91 77 -104 8 -12 33 -44 54 -70 l40 -47 -19
-32 c-10 -18 -28 -43 -40 -57 -25 -29 -111 -141 -144 -187 l-22 -33 90 0 90 0
62 83 c34 45 65 86 69 90 4 5 39 -32 76 -82 l69 -90 93 -1 93 0 -41 53 c-23
28 -75 96 -116 149 l-75 98 88 116 c48 63 101 133 116 155 l28 39 -89 0 -89 0
-57 -72 c-31 -40 -63 -82 -71 -93 -14 -19 -15 -19 -50 20 -19 22 -51 64 -71
93 l-37 52 -94 0 -93 0 63 -80z"/>
</g>
</svg>
